<svg width="1536" height="342" viewBox="0 0 1536 342" fill="none" xmlns="http://www.w3.org/2000/svg">
<g clip-path="url(#clip0_8_173)">
<g opacity="0.3">
<path d="M766.53 -165L766.53 504.267L767.53 504.267L767.53 -165L766.53 -165Z" fill="#13F287"/>
<path d="M765.69 -164.759L-2732.09 504.508L-2731.91 505.49L765.878 -163.776L765.69 -164.759Z" fill="#13F287"/>
<path d="M765.845 -164.302L-2565.38 504.965" stroke="#13F287"/>
<path d="M765.901 -164.337L-2398.76 504.93" stroke="#13F287"/>
<path d="M765.964 -164.372L-2232.14 504.895" stroke="#13F287"/>
<path d="M766.022 -164.407L-2065.52 504.86" stroke="#13F287"/>
<path d="M766.083 -164.442L-1898.9 504.825" stroke="#13F287"/>
<path d="M766.141 -164.476L-1732.28 504.79" stroke="#13F287"/>
<path d="M766.2 -164.512L-1565.66 504.755" stroke="#13F287"/>
<path d="M766.258 -164.546L-1399.04 504.72" stroke="#13F287"/>
<path d="M766.32 -164.58L-1232.41 504.687" stroke="#13F287"/>
<path d="M766.377 -164.615L-1065.8 504.651" stroke="#13F287"/>
<path d="M766.438 -164.652L-899.174 504.615" stroke="#13F287"/>
<path d="M766.496 -164.686L-732.555 504.58" stroke="#13F287"/>
<path d="M766.556 -164.721L-565.933 504.546" stroke="#13F287"/>
<path d="M766.615 -164.756L-399.313 504.511" stroke="#13F287"/>
<path d="M766.674 -164.791L-232.693 504.476" stroke="#13F287"/>
<path d="M766.732 -164.825L-66.0742 504.442" stroke="#13F287"/>
<path d="M766.792 -164.86L100.548 504.407" stroke="#13F287"/>
<path d="M766.851 -164.895L267.168 504.372" stroke="#13F287"/>
<path d="M766.912 -164.931L433.79 504.336" stroke="#13F287"/>
<path d="M766.971 -164.965L600.41 504.302" stroke="#13F287"/>
<path d="M768.31 -164.758L4266.09 504.509L4265.91 505.491L768.122 -163.776L768.31 -164.758Z" fill="#13F287"/>
<path d="M768.155 -164.302L4099.38 504.965" stroke="#13F287"/>
<path d="M768.097 -164.336L3932.76 504.93" stroke="#13F287"/>
<path d="M768.036 -164.372L3766.14 504.895" stroke="#13F287"/>
<path d="M767.979 -164.407L3599.52 504.86" stroke="#13F287"/>
<path d="M767.918 -164.442L3432.9 504.825" stroke="#13F287"/>
<path d="M767.86 -164.476L3266.28 504.79" stroke="#13F287"/>
<path d="M767.8 -164.511L3099.66 504.756" stroke="#13F287"/>
<path d="M767.742 -164.546L2933.04 504.721" stroke="#13F287"/>
<path d="M767.68 -164.58L2766.41 504.687" stroke="#13F287"/>
<path d="M767.623 -164.616L2599.8 504.651" stroke="#13F287"/>
<path d="M767.562 -164.651L2433.17 504.616" stroke="#13F287"/>
<path d="M767.504 -164.685L2266.55 504.581" stroke="#13F287"/>
<path d="M767.444 -164.72L2099.93 504.546" stroke="#13F287"/>
<path d="M767.385 -164.756L1933.31 504.511" stroke="#13F287"/>
<path d="M767.326 -164.791L1766.69 504.476" stroke="#13F287"/>
<path d="M767.268 -164.825L1600.07 504.442" stroke="#13F287"/>
<path d="M767.208 -164.86L1433.45 504.407" stroke="#13F287"/>
<path d="M767.149 -164.895L1266.83 504.372" stroke="#13F287"/>
<path d="M767.088 -164.93L1100.21 504.336" stroke="#13F287"/>
<path d="M767.029 -164.965L933.59 504.302" stroke="#13F287"/>
</g>
<g opacity="0.3">
<line x1="-771.003" y1="280.115" x2="2308" y2="280.115" stroke="#13F287"/>
<line x1="-771.003" y1="227.827" x2="2308" y2="227.827" stroke="#13F287"/>
<line x1="-771.003" y1="142.55" x2="2308" y2="142.55" stroke="#13F287"/>
<line x1="-771.003" y1="179.55" x2="2308" y2="179.55" stroke="#13F287"/>
<line x1="-771.003" y1="80.5306" x2="2308" y2="80.5306" stroke="#13F287"/>
<line x1="-771.003" y1="107.531" x2="2308" y2="107.531" stroke="#13F287"/>
<line x1="-771.003" y1="41.7668" x2="2308" y2="41.7668" stroke="#13F287"/>
<line x1="-771.003" y1="57.767" x2="2308" y2="57.767" stroke="#13F287"/>
<line x1="-771.003" y1="10.7572" x2="2308" y2="10.7572" stroke="#13F287"/>
<line x1="-771.003" y1="24.7572" x2="2308" y2="24.7572" stroke="#13F287"/>
</g>
</g>
<rect width="1536" height="500" fill="url(#paint0_linear_8_173)"/>
<defs>
<linearGradient id="paint0_linear_8_173" x1="768" y1="0" x2="768" y2="500" gradientUnits="userSpaceOnUse">
<stop/>
<stop offset="1" stop-opacity="0"/>
</linearGradient>
<clipPath id="clip0_8_173">
<rect width="1534" height="500" fill="white"/>
</clipPath>
</defs>
</svg>
